<svg width="966" height="189" viewBox="0 0 966 189" fill="none" xmlns="http://www.w3.org/2000/svg">
<path d="M123.05 184.5L56.897 70.8158L86.7781 19.383C90.633 12.7477 100.216 12.7477 104.071 19.383L191.272 169.477C195.145 176.143 190.335 184.5 182.625 184.5H123.05Z" fill="#7C3AED"/>
<path d="M82.7437 184.5L36.2658 104.5L26.6652 121.342L63.3583 184.5H82.7437Z" fill="#7C3AED"/>
<path d="M56.131 184.5L23.4789 126.192L2.91851 161.582C1.11405 164.688 1.11405 168.523 2.91851 171.629L7.50515 179.523C9.29499 182.604 12.5888 184.5 16.1518 184.5H56.131Z" fill="#7C3AED"/>
<mask id="path-2-outside-1_1_24" maskUnits="userSpaceOnUse" x="247" y="40" width="719" height="115" fill="black">
<rect fill="white" x="247" y="40" width="719" height="115"/>
<path d="M251.65 150L292.9 43.65H318.85L359.65 150H331.6L300.85 60.6H310.6L279.1 150H251.65ZM276.7 131.4V110.1H335.35V131.4H276.7ZM412.234 151.65C403.234 151.65 395.284 149.8 388.384 146.1C381.584 142.3 376.284 137.05 372.484 130.35C368.684 123.65 366.784 116.05 366.784 107.55V43.65H393.484V109.5C393.484 113.3 394.284 116.6 395.884 119.4C397.584 122.1 399.834 124.2 402.634 125.7C405.534 127.1 408.734 127.8 412.234 127.8C415.834 127.8 418.984 127.1 421.684 125.7C424.384 124.2 426.534 122.1 428.134 119.4C429.734 116.7 430.534 113.45 430.534 109.65V43.65H457.534V107.7C457.534 116.2 455.634 123.8 451.834 130.5C448.034 137.1 442.734 142.3 435.934 146.1C429.234 149.8 421.334 151.65 412.234 151.65ZM500.143 150V44.4H526.993V150H500.143ZM467.593 66.75V43.65H559.543V66.75H467.593ZM571.755 150V43.65H598.605V150H571.755ZM636.855 150V43.65H663.705V150H636.855ZM587.055 106.8V84.3H646.605V106.8H587.055ZM677.393 131.4L728.693 62.25H761.093L709.793 131.4H677.393ZM677.393 150V131.4L693.443 127.5H759.893V150H677.393ZM680.093 66.15V43.65H761.093V62.25L744.893 66.15H680.093ZM775.221 150V43.65H802.071V150H775.221ZM796.521 150V127.35H854.121V150H796.521ZM796.521 106.8V84.75H848.721V106.8H796.521ZM796.521 66.3V43.65H853.221V66.3H796.521ZM899.764 111.9L859.114 43.65H889.864L920.914 99H899.314L930.364 43.65H960.514L919.564 111.9H899.764ZM896.614 150V100.95H923.464V150H896.614Z"/>
</mask>
<path d="M251.65 150L292.9 43.65H318.85L359.65 150H331.6L300.85 60.6H310.6L279.1 150H251.65ZM276.7 131.4V110.1H335.35V131.4H276.7ZM412.234 151.65C403.234 151.65 395.284 149.8 388.384 146.1C381.584 142.3 376.284 137.05 372.484 130.35C368.684 123.65 366.784 116.05 366.784 107.55V43.65H393.484V109.5C393.484 113.3 394.284 116.6 395.884 119.4C397.584 122.1 399.834 124.2 402.634 125.7C405.534 127.1 408.734 127.8 412.234 127.8C415.834 127.8 418.984 127.1 421.684 125.7C424.384 124.2 426.534 122.1 428.134 119.4C429.734 116.7 430.534 113.45 430.534 109.65V43.65H457.534V107.7C457.534 116.2 455.634 123.8 451.834 130.5C448.034 137.1 442.734 142.3 435.934 146.1C429.234 149.8 421.334 151.65 412.234 151.65ZM500.143 150V44.4H526.993V150H500.143ZM467.593 66.75V43.65H559.543V66.75H467.593ZM571.755 150V43.65H598.605V150H571.755ZM636.855 150V43.65H663.705V150H636.855ZM587.055 106.8V84.3H646.605V106.8H587.055ZM677.393 131.4L728.693 62.25H761.093L709.793 131.4H677.393ZM677.393 150V131.4L693.443 127.5H759.893V150H677.393ZM680.093 66.15V43.65H761.093V62.25L744.893 66.15H680.093ZM775.221 150V43.65H802.071V150H775.221ZM796.521 150V127.35H854.121V150H796.521ZM796.521 106.8V84.75H848.721V106.8H796.521ZM796.521 66.3V43.65H853.221V66.3H796.521ZM899.764 111.9L859.114 43.65H889.864L920.914 99H899.314L930.364 43.65H960.514L919.564 111.9H899.764ZM896.614 150V100.95H923.464V150H896.614Z" fill="white"/>
<path d="M251.65 150L248.853 148.915L247.269 153H251.65V150ZM292.9 43.65V40.65H290.846L290.103 42.5651L292.9 43.65ZM318.85 43.65L321.651 42.5754L320.912 40.65H318.85V43.65ZM359.65 150V153H364.014L362.451 148.925L359.65 150ZM331.6 150L328.763 150.976L329.459 153H331.6V150ZM300.85 60.6V57.6H296.646L298.013 61.5758L300.85 60.6ZM310.6 60.6L313.429 61.597L314.838 57.6H310.6V60.6ZM279.1 150V153H281.224L281.929 150.997L279.1 150ZM276.7 131.4H273.7V134.4H276.7V131.4ZM276.7 110.1V107.1H273.7V110.1H276.7ZM335.35 110.1H338.35V107.1H335.35V110.1ZM335.35 131.4V134.4H338.35V131.4H335.35ZM251.65 150L254.447 151.085L295.697 44.7349L292.9 43.65L290.103 42.5651L248.853 148.915L251.65 150ZM292.9 43.65V46.65H318.85V43.65V40.65H292.9V43.65ZM318.85 43.65L316.049 44.7245L356.849 151.075L359.65 150L362.451 148.925L321.651 42.5754L318.85 43.65ZM359.65 150V147H331.6V150V153H359.65V150ZM331.6 150L334.437 149.024L303.687 59.6242L300.85 60.6L298.013 61.5758L328.763 150.976L331.6 150ZM300.85 60.6V63.6H310.6V60.6V57.6H300.85V60.6ZM310.6 60.6L307.771 59.603L276.271 149.003L279.1 150L281.929 150.997L313.429 61.597L310.6 60.6ZM279.1 150V147H251.65V150V153H279.1V150ZM276.7 131.4H279.7V110.1H276.7H273.7V131.4H276.7ZM276.7 110.1V113.1H335.35V110.1V107.1H276.7V110.1ZM335.35 110.1H332.35V131.4H335.35H338.35V110.1H335.35ZM335.35 131.4V128.4H276.7V131.4V134.4H335.35V131.4ZM388.384 146.1L386.921 148.719L386.944 148.732L386.967 148.744L388.384 146.1ZM372.484 130.35L375.094 128.87L375.094 128.87L372.484 130.35ZM366.784 43.65V40.65H363.784V43.65H366.784ZM393.484 43.65H396.484V40.65H393.484V43.65ZM395.884 119.4L393.28 120.888L393.311 120.944L393.346 120.998L395.884 119.4ZM402.634 125.7L401.218 128.344L401.273 128.374L401.33 128.402L402.634 125.7ZM421.684 125.7L423.065 128.363L423.104 128.343L423.141 128.322L421.684 125.7ZM428.134 119.4L425.554 117.871L425.554 117.871L428.134 119.4ZM430.534 43.65V40.65H427.534V43.65H430.534ZM457.534 43.65H460.534V40.65H457.534V43.65ZM451.834 130.5L454.434 131.997L454.439 131.988L454.444 131.98L451.834 130.5ZM435.934 146.1L437.385 148.726L437.391 148.723L437.398 148.719L435.934 146.1ZM412.234 151.65V148.65C403.655 148.65 396.205 146.889 389.802 143.456L388.384 146.1L386.967 148.744C394.364 152.711 402.814 154.65 412.234 154.65V151.65ZM388.384 146.1L389.848 143.481C383.521 139.946 378.62 135.087 375.094 128.87L372.484 130.35L369.875 131.83C373.949 139.013 379.648 144.654 386.921 148.719L388.384 146.1ZM372.484 130.35L375.094 128.87C371.576 122.667 369.784 115.586 369.784 107.55H366.784H363.784C363.784 116.514 365.793 124.633 369.875 131.83L372.484 130.35ZM366.784 107.55H369.784V43.65H366.784H363.784V107.55H366.784ZM366.784 43.65V46.65H393.484V43.65V40.65H366.784V43.65ZM393.484 43.65H390.484V109.5H393.484H396.484V43.65H393.484ZM393.484 109.5H390.484C390.484 113.728 391.378 117.56 393.28 120.888L395.884 119.4L398.489 117.912C397.191 115.64 396.484 112.872 396.484 109.5H393.484ZM395.884 119.4L393.346 120.998C395.321 124.136 397.957 126.598 401.218 128.344L402.634 125.7L404.051 123.056C401.712 121.802 399.847 120.064 398.423 117.802L395.884 119.4ZM402.634 125.7L401.33 128.402C404.671 130.015 408.323 130.8 412.234 130.8V127.8V124.8C409.146 124.8 406.397 124.185 403.939 122.998L402.634 125.7ZM412.234 127.8V130.8C416.227 130.8 419.867 130.022 423.065 128.363L421.684 125.7L420.303 123.037C418.102 124.178 415.442 124.8 412.234 124.8V127.8ZM421.684 125.7L423.141 128.322C426.314 126.56 428.849 124.079 430.715 120.929L428.134 119.4L425.554 117.871C424.22 120.121 422.455 121.84 420.227 123.078L421.684 125.7ZM428.134 119.4L430.715 120.929C432.642 117.678 433.534 113.875 433.534 109.65H430.534H427.534C427.534 113.025 426.827 115.722 425.554 117.871L428.134 119.4ZM430.534 109.65H433.534V43.65H430.534H427.534V109.65H430.534ZM430.534 43.65V46.65H457.534V43.65V40.65H430.534V43.65ZM457.534 43.65H454.534V107.7H457.534H460.534V43.65H457.534ZM457.534 107.7H454.534C454.534 115.736 452.743 122.817 449.225 129.02L451.834 130.5L454.444 131.98C458.526 124.783 460.534 116.664 460.534 107.7H457.534ZM451.834 130.5L449.235 129.003C445.711 135.122 440.809 139.939 434.471 143.481L435.934 146.1L437.398 148.719C444.66 144.661 450.357 139.078 454.434 131.997L451.834 130.5ZM435.934 146.1L434.484 143.474C428.305 146.886 420.923 148.65 412.234 148.65V151.65V154.65C421.746 154.65 430.164 152.714 437.385 148.726L435.934 146.1ZM500.143 150H497.143V153H500.143V150ZM500.143 44.4V41.4H497.143V44.4H500.143ZM526.993 44.4H529.993V41.4H526.993V44.4ZM526.993 150V153H529.993V150H526.993ZM467.593 66.75H464.593V69.75H467.593V66.75ZM467.593 43.65V40.65H464.593V43.65H467.593ZM559.543 43.65H562.543V40.65H559.543V43.65ZM559.543 66.75V69.75H562.543V66.75H559.543ZM500.143 150H503.143V44.4H500.143H497.143V150H500.143ZM500.143 44.4V47.4H526.993V44.4V41.4H500.143V44.4ZM526.993 44.4H523.993V150H526.993H529.993V44.4H526.993ZM526.993 150V147H500.143V150V153H526.993V150ZM467.593 66.75H470.593V43.65H467.593H464.593V66.75H467.593ZM467.593 43.65V46.65H559.543V43.65V40.65H467.593V43.65ZM559.543 43.65H556.543V66.75H559.543H562.543V43.65H559.543ZM559.543 66.75V63.75H467.593V66.75V69.75H559.543V66.75ZM571.755 150H568.755V153H571.755V150ZM571.755 43.65V40.65H568.755V43.65H571.755ZM598.605 43.65H601.605V40.65H598.605V43.65ZM598.605 150V153H601.605V150H598.605ZM636.855 150H633.855V153H636.855V150ZM636.855 43.65V40.65H633.855V43.65H636.855ZM663.705 43.65H666.705V40.65H663.705V43.65ZM663.705 150V153H666.705V150H663.705ZM587.055 106.8H584.055V109.8H587.055V106.8ZM587.055 84.3V81.3H584.055V84.3H587.055ZM646.605 84.3H649.605V81.3H646.605V84.3ZM646.605 106.8V109.8H649.605V106.8H646.605ZM571.755 150H574.755V43.65H571.755H568.755V150H571.755ZM571.755 43.65V46.65H598.605V43.65V40.65H571.755V43.65ZM598.605 43.65H595.605V150H598.605H601.605V43.65H598.605ZM598.605 150V147H571.755V150V153H598.605V150ZM636.855 150H639.855V43.65H636.855H633.855V150H636.855ZM636.855 43.65V46.65H663.705V43.65V40.65H636.855V43.65ZM663.705 43.65H660.705V150H663.705H666.705V43.65H663.705ZM663.705 150V147H636.855V150V153H663.705V150ZM587.055 106.8H590.055V84.3H587.055H584.055V106.8H587.055ZM587.055 84.3V87.3H646.605V84.3V81.3H587.055V84.3ZM646.605 84.3H643.605V106.8H646.605H649.605V84.3H646.605ZM646.605 106.8V103.8H587.055V106.8V109.8H646.605V106.8ZM677.393 131.4L674.984 129.613L671.432 134.4H677.393V131.4ZM728.693 62.25V59.25H727.184L726.284 60.4626L728.693 62.25ZM761.093 62.25L763.503 64.0374L767.054 59.25H761.093V62.25ZM709.793 131.4V134.4H711.303L712.203 133.187L709.793 131.4ZM677.393 150H674.393V153H677.393V150ZM677.393 131.4L676.685 128.485L674.393 129.042V131.4H677.393ZM693.443 127.5V124.5H693.084L692.735 124.585L693.443 127.5ZM759.893 127.5H762.893V124.5H759.893V127.5ZM759.893 150V153H762.893V150H759.893ZM680.093 66.15H677.093V69.15H680.093V66.15ZM680.093 43.65V40.65H677.093V43.65H680.093ZM761.093 43.65H764.093V40.65H761.093V43.65ZM761.093 62.25L761.796 65.1667L764.093 64.6135V62.25H761.093ZM744.893 66.15V69.15H745.249L745.596 69.0667L744.893 66.15ZM677.393 131.4L679.803 133.187L731.103 64.0374L728.693 62.25L726.284 60.4626L674.984 129.613L677.393 131.4ZM728.693 62.25V65.25H761.093V62.25V59.25H728.693V62.25ZM761.093 62.25L758.684 60.4626L707.384 129.613L709.793 131.4L712.203 133.187L763.503 64.0374L761.093 62.25ZM709.793 131.4V128.4H677.393V131.4V134.4H709.793V131.4ZM677.393 150H680.393V131.4H677.393H674.393V150H677.393ZM677.393 131.4L678.102 134.315L694.152 130.415L693.443 127.5L692.735 124.585L676.685 128.485L677.393 131.4ZM693.443 127.5V130.5H759.893V127.5V124.5H693.443V127.5ZM759.893 127.5H756.893V150H759.893H762.893V127.5H759.893ZM759.893 150V147H677.393V150V153H759.893V150ZM680.093 66.15H683.093V43.65H680.093H677.093V66.15H680.093ZM680.093 43.65V46.65H761.093V43.65V40.65H680.093V43.65ZM761.093 43.65H758.093V62.25H761.093H764.093V43.65H761.093ZM761.093 62.25L760.391 59.3333L744.191 63.2333L744.893 66.15L745.596 69.0667L761.796 65.1667L761.093 62.25ZM744.893 66.15V63.15H680.093V66.15V69.15H744.893V66.15ZM775.221 150H772.221V153H775.221V150ZM775.221 43.65V40.65H772.221V43.65H775.221ZM802.071 43.65H805.071V40.65H802.071V43.65ZM802.071 150V153H805.071V150H802.071ZM796.521 150H793.521V153H796.521V150ZM796.521 127.35V124.35H793.521V127.35H796.521ZM854.121 127.35H857.121V124.35H854.121V127.35ZM854.121 150V153H857.121V150H854.121ZM796.521 106.8H793.521V109.8H796.521V106.8ZM796.521 84.75V81.75H793.521V84.75H796.521ZM848.721 84.75H851.721V81.75H848.721V84.75ZM848.721 106.8V109.8H851.721V106.8H848.721ZM796.521 66.3H793.521V69.3H796.521V66.3ZM796.521 43.65V40.65H793.521V43.65H796.521ZM853.221 43.65H856.221V40.65H853.221V43.65ZM853.221 66.3V69.3H856.221V66.3H853.221ZM775.221 150H778.221V43.65H775.221H772.221V150H775.221ZM775.221 43.65V46.65H802.071V43.65V40.65H775.221V43.65ZM802.071 43.65H799.071V150H802.071H805.071V43.65H802.071ZM802.071 150V147H775.221V150V153H802.071V150ZM796.521 150H799.521V127.35H796.521H793.521V150H796.521ZM796.521 127.35V130.35H854.121V127.35V124.35H796.521V127.35ZM854.121 127.35H851.121V150H854.121H857.121V127.35H854.121ZM854.121 150V147H796.521V150V153H854.121V150ZM796.521 106.8H799.521V84.75H796.521H793.521V106.8H796.521ZM796.521 84.75V87.75H848.721V84.75V81.75H796.521V84.75ZM848.721 84.75H845.721V106.8H848.721H851.721V84.75H848.721ZM848.721 106.8V103.8H796.521V106.8V109.8H848.721V106.8ZM796.521 66.3H799.521V43.65H796.521H793.521V66.3H796.521ZM796.521 43.65V46.65H853.221V43.65V40.65H796.521V43.65ZM853.221 43.65H850.221V66.3H853.221H856.221V43.65H853.221ZM853.221 66.3V63.3H796.521V66.3V69.3H853.221V66.3ZM899.764 111.9L897.186 113.435L898.059 114.9H899.764V111.9ZM859.114 43.65V40.65H853.835L856.536 45.1851L859.114 43.65ZM889.864 43.65L892.48 42.1822L891.621 40.65H889.864V43.65ZM920.914 99V102H926.036L923.53 97.5322L920.914 99ZM899.314 99L896.697 97.5322L894.191 102H899.314V99ZM930.364 43.65V40.65H928.607L927.747 42.1822L930.364 43.65ZM960.514 43.65L963.086 45.1935L965.812 40.65H960.514V43.65ZM919.564 111.9V114.9H921.262L922.136 113.443L919.564 111.9ZM896.614 150H893.614V153H896.614V150ZM896.614 100.95V97.95H893.614V100.95H896.614ZM923.464 100.95H926.464V97.95H923.464V100.95ZM923.464 150V153H926.464V150H923.464ZM899.764 111.9L902.341 110.365L861.691 42.1148L859.114 43.65L856.536 45.1851L897.186 113.435L899.764 111.9ZM859.114 43.65V46.65H889.864V43.65V40.65H859.114V43.65ZM889.864 43.65L887.247 45.1177L918.297 100.468L920.914 99L923.53 97.5322L892.48 42.1822L889.864 43.65ZM920.914 99V96H899.314V99V102H920.914V99ZM899.314 99L901.93 100.468L932.98 45.1177L930.364 43.65L927.747 42.1822L896.697 97.5322L899.314 99ZM930.364 43.65V46.65H960.514V43.65V40.65H930.364V43.65ZM960.514 43.65L957.941 42.1065L916.991 110.357L919.564 111.9L922.136 113.443L963.086 45.1935L960.514 43.65ZM919.564 111.9V108.9H899.764V111.9V114.9H919.564V111.9ZM896.614 150H899.614V100.95H896.614H893.614V150H896.614ZM896.614 100.95V103.95H923.464V100.95V97.95H896.614V100.95ZM923.464 100.95H920.464V150H923.464H926.464V100.95H923.464ZM923.464 150V147H896.614V150V153H923.464V150Z" fill="black" mask="url(#path-2-outside-1_1_24)"/>
</svg>
